<svg xmlns="http://www.w3.org/2000/svg" x="0px" y="0px" width="100" height="100" viewBox="0,0,256,256">
<defs><linearGradient x1="38.043" y1="11.75" x2="23.006" y2="11.75" gradientUnits="userSpaceOnUse" id="color-1_g63DhUA82CEw_gr1"><stop offset="0" stop-color="#6f42c1"></stop><stop offset="1" stop-color="#9332bf"></stop></linearGradient><linearGradient x1="35.709" y1="14.976" x2="12.967" y2="37.718" gradientUnits="userSpaceOnUse" id="color-2_g63DhUA82CEw_gr2"><stop offset="0" stop-color="#6f42c1"></stop><stop offset="1" stop-color="#ac4ad5"></stop></linearGradient><linearGradient x1="21.564" y1="14.564" x2="16.843" y2="9.843" gradientUnits="userSpaceOnUse" id="color-3_g63DhUA82CEw_gr3"><stop offset="0" stop-color="#6f42c1"></stop><stop offset="1" stop-color="#ac4ad5"></stop></linearGradient></defs><g fill="none" fill-rule="nonzero" stroke="none" stroke-width="1" stroke-linecap="butt" stroke-linejoin="miter" stroke-miterlimit="10" stroke-dasharray="" stroke-dashoffset="0" font-family="none" font-weight="none" font-size="none" text-anchor="none" style="mix-blend-mode: normal"><g transform="scale(5.33333,5.33333)"><path d="M25.668,3.484l11.848,11.848c0.645,0.645 0.645,1.69 0,2.335l-2.349,2.349c-0.645,0.645 -1.69,0.645 -2.335,0l-11.849,-11.849c-0.645,-0.645 -0.645,-1.69 0,-2.335l2.349,-2.349c0.645,-0.644 1.691,-0.644 2.336,0.001z" fill="url(#color-1_g63DhUA82CEw_gr1)"></path><path d="M28,43.5v-36.5l-8,2.25v34.25c0,0.828 0.672,1.5 1.5,1.5h5c0.828,0 1.5,-0.672 1.5,-1.5z" fill="url(#color-2_g63DhUA82CEw_gr2)"></path><path d="M23.332,3.484l-12.848,12.849c-0.645,0.645 -0.645,1.69 0,2.335l2.349,2.349c0.645,0.645 1.69,0.645 2.335,0l12.832,-12.833v-2.368l-2.333,-2.333c-0.644,-0.644 -1.69,-0.644 -2.335,0.001z" fill="url(#color-3_g63DhUA82CEw_gr3)"></path></g></g>
</svg>