<svg width="158" height="112" viewBox="0 0 158 112" fill="none" xmlns="http://www.w3.org/2000/svg">
<g clip-path="url(#clip0_43_747)">
<path d="M-138.823 292.328V286.06H-137.573H-136.322L-136.319 288.881C-136.318 290.432 -136.196 293.253 -136.049 295.149L-135.781 298.597H-137.302H-138.823L-138.823 292.328ZM-25.0132 179.204C-29.0914 178.519 -31.5489 176.836 -32.4605 174.102C-32.7772 173.152 -32.9341 167.943 -32.9341 158.377C-32.9341 142.644 -32.8904 142.327 -30.3842 139.871C-28.7281 138.247 -27.1793 137.929 -22.5541 138.259C-12.5361 138.975 -6.74724 142.482 -5.34278 148.685C-4.82447 150.974 -5.89003 155.184 -7.33124 156.541C-8.62881 157.763 -8.60672 158.742 -7.26162 159.626C-5.76692 160.607 -4.17797 164.207 -4.17298 166.623C-4.16668 169.462 -5.9158 173.99 -7.62901 175.572C-10.6243 178.339 -19.3302 180.157 -25.0132 179.204ZM-17.3008 170.31C-15.1197 169.805 -13.7573 168.216 -13.7573 166.176C-13.7573 163.462 -14.3805 163.051 -19.0207 162.711C-21.2754 162.546 -23.1584 162.449 -23.2052 162.496C-23.252 162.543 -23.1815 164.412 -23.0483 166.649L-22.8062 170.716L-20.8873 170.707C-19.8318 170.702 -18.218 170.523 -17.3008 170.31ZM-15.8949 153.78C-15.4689 153.623 -15.3726 152.966 -15.518 151.208C-15.7705 148.156 -16.7001 147.313 -19.8142 147.313C-21.0312 147.313 -22.3236 147.199 -22.6862 147.06C-23.2555 146.841 -23.3457 147.289 -23.3457 150.333C-23.3457 152.273 -23.2436 153.963 -23.119 154.088C-22.8547 154.353 -16.7395 154.093 -15.8949 153.78ZM2.9695 178.238C2.1952 178.055 1.06959 177.412 0.468166 176.809L-0.625373 175.714L-0.746858 163.258C-0.820755 155.679 -0.705576 150.373 -0.452797 149.706C0.883136 146.184 6.99118 146.484 8.65369 150.153C9.0395 151.005 9.39866 151.771 9.45187 151.856C9.50513 151.941 9.85672 151.701 10.2333 151.324C11.6257 149.928 13.4217 149.305 15.4799 149.503C16.5808 149.609 17.7691 149.935 18.1206 150.227C19.0472 150.998 18.9466 154.315 17.9468 155.958C16.965 157.573 16.1565 158.035 13.2681 158.636C9.12468 159.498 9.26076 159.21 9.10047 167.465C8.9415 175.651 8.54827 177.008 6.03047 178.063C5.25056 178.389 4.55952 178.637 4.49484 178.614C4.43008 178.59 3.74378 178.421 2.9695 178.238ZM25.553 176.967C22.723 175.843 19.8376 172.684 18.9724 169.764C17.6719 165.374 18.6288 159.813 21.3032 156.22C22.5665 154.522 23.5946 153.716 26.0374 152.505C29.1037 150.986 29.2251 150.963 33.0262 151.163C38.5028 151.452 40.8593 152.729 43.6568 156.925C44.9995 158.939 45.8885 161.287 47.9134 168.167C49.3663 173.103 49.4457 174.028 48.5629 175.74C47.768 177.281 46.763 177.821 44.6905 177.821C42.7696 177.821 41.3309 176.83 39.9785 174.575C39.4637 173.717 38.989 172.944 38.9236 172.858C38.8582 172.772 38.3435 173.25 37.7798 173.922C35.0129 177.218 29.5876 178.569 25.553 176.967ZM34.6414 165.693C36.6086 163.388 36.8651 162.603 36.0558 161.365C35.4286 160.405 35.0582 160.269 33.0798 160.269C30.4802 160.269 29.0784 161.009 28.3527 162.765C27.9587 163.719 27.9715 164.209 28.4148 165.136C29.6191 167.653 32.7308 167.932 34.6414 165.693ZM122.528 176.868C120.63 175.586 118.875 172.087 115.04 161.94C111.867 153.544 111.875 150.729 115.077 148.833C116.712 147.865 117.662 147.98 118.918 149.299C119.95 150.381 123.409 157.867 124.035 160.373C124.492 162.202 124.885 161.731 125.427 158.702C126.11 154.885 127.038 152.136 127.897 151.389C129.17 150.282 130.782 150.16 132.507 151.042C134.856 152.244 135.488 153.467 135.488 156.815C135.488 159.824 134.739 163.02 132.279 170.507C130.358 176.354 129.099 177.821 126.003 177.821C124.545 177.821 123.525 177.541 122.528 176.868ZM176.8 177.174C172.909 176.328 168.987 173.514 167.027 170.161C165.81 168.08 164.67 163.965 164.67 161.654C164.67 156.557 167.53 151.565 171.593 149.572C174.958 147.922 179.717 147.689 183.197 149.004C190.015 151.582 193.527 159.555 190.035 164.528L189.244 165.652L181.114 165.403C172.078 165.125 172.368 165.019 174.333 167.865C175.767 169.942 177.849 170.185 185.819 169.207C187.902 168.952 188.059 169.003 189.299 170.334C190.389 171.503 190.56 171.959 190.365 173.168C189.712 177.201 184.29 178.803 176.8 177.174ZM183.847 159.238C183.847 158.902 183.265 157.961 182.553 157.149C181.484 155.929 180.974 155.672 179.622 155.672C176.656 155.672 173.887 157.327 173.855 159.119C173.844 159.776 174.353 159.851 178.844 159.851C182.96 159.851 183.847 159.742 183.847 159.238ZM105.845 176.777C104.459 176.022 103.388 174.388 103.388 173.03C103.388 171.992 102.449 171.545 101.954 172.347C101.439 173.183 97.2059 175.658 95.1194 176.344C92.4915 177.208 90.8847 176.988 88.932 175.495C86.7993 173.864 85.756 171.443 85.756 168.126C85.756 164.2 86.6916 162.821 90.6728 160.877C92.1847 160.138 93.4595 159.858 95.3141 159.855C97.417 159.852 97.9057 159.718 98.0659 159.104C98.5091 157.405 96.5123 154.836 94.7483 154.836C94.1416 154.836 92.3414 155.512 90.7478 156.339C88.2282 157.646 87.7264 157.775 86.8996 157.332C84.4499 156.018 85.8509 151.541 89.2568 149.799C93.1177 147.824 99.9396 148.362 102.863 150.87C104.974 152.681 105.627 154.084 107.402 160.622C108.192 163.53 109.394 167.261 110.073 168.911C111.627 172.685 111.692 174.967 110.285 176.377C109.129 177.536 107.505 177.682 105.845 176.777ZM98.4389 167.718C98.6316 167.414 98.7922 166.481 98.7957 165.646C98.8036 163.944 97.9803 163.463 95.8069 163.899C93.715 164.318 93.0033 166.413 94.3634 168.148C94.9124 168.848 97.9253 168.53 98.4389 167.718ZM147.361 176.486C145.985 175.401 144.124 171.469 140.328 161.625C136.936 152.83 136.564 151.165 137.61 149.442C138.534 147.919 140.674 147.373 142.424 148.214C143.294 148.632 143.897 149.526 144.779 151.702C147.05 157.309 148.564 160.687 148.806 160.687C148.94 160.687 149.966 158.512 151.087 155.855C154.469 147.838 156.31 146.095 159.505 147.89C162.733 149.704 162.667 151.872 159.032 163.443C156.367 171.925 154.761 175.345 152.904 176.496C151.012 177.668 148.855 177.664 147.361 176.486ZM58.0781 175.926C57.123 175.172 56.3887 173.911 55.4636 171.438C54.7561 169.547 53.6278 166.778 52.9564 165.284C47.4094 152.942 46.8987 150.886 48.942 149.124C50.1626 148.072 51.8906 147.876 53.4947 148.609C54.5476 149.09 57.5087 154.908 58.9812 159.389C59.8652 162.08 60.0828 161.821 61.0548 156.925C62.2071 151.122 63.9962 148.841 66.8366 149.556C68.2618 149.915 69.58 152.27 71.3123 157.552L72.6828 161.731L73.9654 155.684C75.1072 150.3 75.3624 149.576 76.2902 149.087C78.5009 147.923 81.7946 149.444 82.3271 151.874C82.6135 153.181 81.7647 159.137 80.0009 168.198C78.8616 174.051 78.6173 174.799 77.5075 175.836C75.2098 177.982 72.4305 176.905 71.2845 173.423C71.0326 172.658 69.9168 169.936 68.805 167.375L66.7836 162.717L66.322 164.941C64.6335 173.076 64.0552 175.079 63.1273 176.009C61.8207 177.319 59.7988 177.286 58.0781 175.926ZM55.84 109.535C52.7053 108.331 50.9697 107.167 48.198 104.409C43.3816 99.616 39.6747 93.7573 37.5328 87.5522C36.0838 83.3545 36.1446 77.1621 37.6786 72.7204C39.1115 68.5714 40.8679 65.6452 44.2627 61.7518C48.3484 57.0659 51.4099 54.8854 57.0273 52.6606C59.7115 51.5975 62.3726 50.2685 62.941 49.7071C63.5094 49.1458 63.7596 48.6866 63.4969 48.6866C63.2342 48.6866 62.9247 48.9216 62.809 49.209C62.6934 49.4963 62.5839 48.9649 62.5658 48.0281C62.5222 45.7716 61.3181 44.6462 58.5725 44.296C56.0431 43.9734 54.2384 44.5613 50.2192 47.017C47.2603 48.825 42.3313 52.907 39.4791 55.9116C35.0691 60.5573 30.9743 68.2819 29.7742 74.2191C28.9625 78.2346 29.1564 84.6658 30.2242 89.1483C31.0938 92.7988 33.5455 97.761 37.2621 103.393C38.992 106.014 40.3178 108.304 40.2084 108.482C40.0989 108.659 39.3284 109.03 38.4961 109.305C36.5183 109.96 33.071 109.584 30.909 108.478C27.6658 106.82 22.5903 99.1562 21.063 93.6119C19.6421 88.4537 19.2389 87.9702 16.3586 87.9702C11.6875 87.9702 11.8517 93.1915 16.7967 101.899C19.8071 107.2 19.7557 106.983 18.2903 108.219C15.7574 110.356 11.6982 109.327 8.63742 105.773C5.76633 102.439 4.73836 100.756 3.68954 97.6706C1.90799 92.4301 2.71396 85.6608 5.58371 81.7616L6.58315 80.4035L4.66316 75.7242C2.80268 71.1898 2.74297 70.9088 2.73593 66.6567C2.72963 63.056 2.90425 61.8028 3.70733 59.6724C4.97767 56.3024 8.56908 52.2491 11.3907 51.0007L13.4225 50.1018L13.5334 45.3196C13.6234 41.4436 13.84 40.0102 14.6771 37.7555C15.8807 34.5135 17.6006 32.1816 20.0361 30.4897C21.5878 29.4117 22.246 29.2523 26.2071 28.9956C28.6458 28.8375 30.688 28.6899 30.7453 28.6675C30.8027 28.6451 30.8496 26.4581 30.8496 23.8075C30.8496 17.0109 31.9657 14.7455 36.4418 12.4566C38.2483 11.5328 39.012 11.4093 42.9035 11.4123C45.3307 11.4138 47.5816 11.4799 47.9054 11.5585C48.2936 11.6528 48.6113 11.1655 48.8382 10.1278C49.6802 6.27694 52.3036 3.11315 56.2797 1.15355C58.2931 0.161258 59.0554 0.0252376 62.533 0.0377788C67.2284 0.0546795 69.6929 0.86982 73.7874 3.76011C75.2535 4.79503 76.6604 5.64178 76.9138 5.64178C77.1672 5.64178 78.3968 4.72968 79.6464 3.6149C83.3961 0.269475 84.1404 0 89.6306 0C93.9827 0 94.6492 0.105358 96.8577 1.14257C100.059 2.6462 102.673 4.72964 102.365 5.53345C102.2 5.96298 102.323 6.07751 102.766 5.90722C103.478 5.6334 105.568 7.23759 105.225 7.79432C105.105 7.98953 105.214 8.14925 105.468 8.14925C106.08 8.14925 107.944 10.2941 107.96 11.0176C107.971 11.4689 108.386 11.5124 109.954 11.2266C112.561 10.7514 116.802 10.8963 118.704 11.5255C121.023 12.2926 124.065 15.3847 125.021 17.9453C125.672 19.6886 126.734 25.2617 126.734 26.9331C126.734 27.1174 128.281 27.3528 130.173 27.456C135.879 27.7673 139.585 30.0811 142.353 35.0609C144.145 38.2865 144.6 40.2946 144.767 45.726C144.881 49.4273 145.016 50.1467 145.67 50.532C147.766 51.7671 150.696 54.3902 152.376 56.5353C156.542 61.8534 157.201 69.1938 154.165 76.4534C152.395 80.6845 152.402 80.6175 153.544 82.6051C154.117 83.6021 154.922 85.5078 155.333 86.8399C156.657 91.1339 155.23 97.3467 151.706 102.623C149.869 105.375 147.87 106.994 144.693 108.305C141.156 109.763 138.995 109.463 136.981 107.232C136.189 106.354 136.2 106.316 138.501 101.861C140.769 97.4662 142.992 91.3517 142.992 89.5043C142.992 87.7393 141.863 86.7164 139.914 86.7164C137.553 86.7164 136.77 87.6284 135.073 92.3582C133.236 97.4781 129.166 104.257 126.398 106.808C122.695 110.221 119.199 110.578 116.76 107.793C116.055 106.988 115.478 106.088 115.478 105.792C115.478 105.497 116.244 104.234 117.181 102.986C121.057 97.8225 124.892 88.0598 125.342 82.2114C125.77 76.6495 124.252 70.4945 120.931 64.3218C118.515 59.8311 116.249 56.8949 111.767 52.4446C108.625 49.3247 106.736 47.8729 102.971 45.685C100.334 44.1525 97.6768 42.7741 97.0657 42.6219C95.6138 42.2602 93.1257 43.4385 92.8043 44.6399C92.0586 47.4272 93.1273 48.9621 97.2696 51.0532C102.684 53.7865 108.775 59.0039 112.726 64.2936C116.95 69.947 119.302 79.0867 117.971 84.6675C117.17 88.024 114.826 93.6433 112.847 96.9496C108.916 103.52 104.577 107.717 100.155 109.228C97.2342 110.227 95.1065 110.333 91.4874 109.663C87.7669 108.973 86.3773 108.093 84.0376 104.943C82.9153 103.432 82.808 102.951 82.4985 98.0474C82.3155 95.1482 82.157 89.823 82.1462 86.2137C82.1352 82.3381 81.9372 79.2343 81.6638 78.6329C80.7507 76.6239 77.0639 75.9727 75.6253 77.5663C74.8842 78.3872 74.8309 79.2316 74.8266 90.2081C74.8219 103.25 74.7504 103.666 72.05 106.454C69.6198 108.963 67.1555 109.817 61.9077 109.97C58.7499 110.063 56.8604 109.927 55.84 109.535ZM62.7604 96.9742C64.1038 95.6275 64.1433 93.4559 62.8456 92.2828C62.3297 91.8164 61.1188 91.0015 60.1546 90.4719C58.7055 89.676 58.2212 89.0677 57.3611 86.9635C55.8873 83.3578 55.6827 81.3817 56.4658 78.3175C57.3832 74.7276 58.9329 72.2765 62.2982 69.093C66.1426 65.4562 71.4785 63.9013 78.9037 64.2541C83.3211 64.464 83.6067 64.5371 87.4222 66.4359C94.2827 69.85 98.3688 75.0236 98.733 80.7568C98.934 83.9217 98.2559 86.6108 96.7214 88.7344C94.4173 91.9229 94.3334 92.7443 96.1284 94.5436C97.4095 95.8279 101.439 94.7346 102.853 92.7189C104.239 90.7425 105.543 86.4124 105.775 83.0168C106.309 75.1678 101.859 67.0008 94.0184 61.4404C82.4653 53.2476 65.9016 54.9216 55.5174 65.3312C50.802 70.0582 48.228 75.8314 48.2187 81.7015C48.2093 87.4159 50.8291 93.0451 54.8638 95.9813C57.3556 97.7947 57.6902 97.9255 59.9463 97.967C61.3193 97.9923 61.9758 97.7607 62.7604 96.9742ZM139.106 72.0953C140.877 72.0747 141.547 67.876 140.269 64.8088C139.918 63.9661 139.76 63.0498 139.919 62.7727C140.078 62.4955 140.06 62.402 139.88 62.565C139.699 62.728 138.949 61.5997 138.211 60.0576C136.495 56.4698 132.091 49.5024 129.835 46.806C128.873 45.6567 126.382 42.9477 124.299 40.7859C122.215 38.6242 120.627 36.6675 120.768 36.4378C120.913 36.2024 120.816 36.15 120.546 36.3177C120.272 36.4871 119.21 35.8771 118.081 34.9021C113.508 30.9531 105.895 27.3251 98.2656 25.4585C92.0293 23.9327 86.4751 24.3387 81.123 26.7114L78.7618 27.7582L73.6698 26.4165C69.1697 25.2307 67.9477 25.0761 63.1582 25.0872C59.2171 25.0967 57.121 25.2958 55.4744 25.8185C54.229 26.2139 52.7267 26.5374 52.136 26.5374C50.9404 26.5374 48.1847 27.8873 44.3693 30.3422C42.9776 31.2376 41.7105 31.9702 41.5535 31.9702C41.1702 31.9702 35.8294 36.0843 32.7255 38.7706C28.4007 42.5135 21.7249 50.8251 18.2298 56.818C16.1346 60.4107 13.8418 65.768 13.5125 67.8405C13.1653 70.0263 14.6472 71.3931 17.3645 71.3931C19.8294 71.3931 20.6083 70.4923 22.2233 65.7745C23.5334 61.9471 26.3262 56.8422 29.168 53.0803C34.0035 46.6794 42.5902 39.4528 49.401 36.0522C55.0473 33.233 61.3455 31.9473 65.6311 32.7389C69.2084 33.3997 73.8367 34.9932 75.3817 36.096C76.0668 36.585 76.8685 36.9851 77.1632 36.9851C77.458 36.9851 78.9298 36.2526 80.434 35.3572C84.4486 32.9675 85.8795 32.6045 91.2981 32.6018C95.1693 32.6002 96.6943 32.7884 99.2189 33.5811C108.449 36.4792 117.967 43.4555 125.155 52.5901C129.26 57.8062 130.908 60.6594 132.921 66.0299C134.771 70.9674 136.145 72.7657 137.738 72.337C138.22 72.2071 138.836 72.0984 139.106 72.0953Z" fill="url(#paint0_linear_43_747)"/>
</g>
<defs>
<linearGradient id="paint0_linear_43_747" x1="2.79449" y1="56.3169" x2="163.866" y2="77.0514" gradientUnits="userSpaceOnUse">
<stop stop-color="#2B8CB9"/>
<stop offset="1" stop-color="#6F42C1"/>
</linearGradient>
<clipPath id="clip0_43_747">
<rect width="158" height="112" fill="white"/>
</clipPath>
</defs>
</svg>
