<svg xmlns="http://www.w3.org/2000/svg" x="0px" y="0px" width="100" height="100" viewBox="0,0,256,256">
  <g fill="#ffffff" fill-rule="nonzero" stroke="none" stroke-width="1" stroke-linecap="butt" stroke-linejoin="miter" stroke-miterlimit="10" stroke-dasharray="" stroke-dashoffset="0" font-family="none" font-weight="none" font-size="none" text-anchor="none" style="mix-blend-mode: normal"><g transform="scale(5.12,5.12)"><path d="M42.90625,2.90625c-1.05469,0 -2.10937,0.39063 -2.90625,1.1875l-0.84375,0.8125c-0.20312,-0.10547 -0.43359,-0.13672 -0.65625,-0.09375c-0.19141,0.04297 -0.36328,0.14063 -0.5,0.28125l-31.40625,31.40625c-0.09766,0.09766 -0.17187,0.21484 -0.21875,0.34375l-3.3125,8.8125c-0.13281,0.36328 -0.04297,0.77344 0.23438,1.04688c0.27344,0.27734 0.68359,0.36719 1.04688,0.23438l8.8125,-3.3125c0.12891,-0.04687 0.24609,-0.12109 0.34375,-0.21875l31.40625,-31.40625c0.33594,-0.34766 0.37891,-0.88672 0.09375,-1.28125l0.8125,-0.8125c1.59375,-1.59375 1.59375,-4.21875 0,-5.8125c-0.79687,-0.79687 -1.85156,-1.1875 -2.90625,-1.1875zM42.90625,4.90625c0.54688,0 1.09766,0.19141 1.5,0.59375c0.80859,0.80859 0.80859,2.19141 0,3l-0.78125,0.8125l-3,-3l0.78125,-0.8125c0.40234,-0.40234 0.95313,-0.59375 1.5,-0.59375zM38.6875,7.1875l4.125,4.125l-2.75,2.71875l-4.09375,-4.09375zM34.53125,11.34375l4.125,4.125l-25.90625,25.875l-0.75,-0.78125v-1.5625c0,-0.55078 -0.44922,-1 -1,-1h-1.5625l-0.78125,-0.75zM7.65625,39.09375l0.625,0.625c0.19141,0.1875 0.45313,0.28906 0.71875,0.28125h1v1c-0.00781,0.26563 0.09375,0.52734 0.28125,0.71875l0.625,0.625l-3.8125,1.4375l-0.875,-0.875z"></path></g></g>
</svg>
