<svg xmlns="http://www.w3.org/2000/svg" x="0px" y="0px" width="100" height="100" viewBox="0,0,256,256">
<g fill="none" fill-rule="nonzero" stroke="none" stroke-width="1" stroke-linecap="butt" stroke-linejoin="miter" stroke-miterlimit="10" stroke-dasharray="" stroke-dashoffset="0" font-family="none" font-weight="none" font-size="none" text-anchor="none" style="mix-blend-mode: normal"><g transform="scale(0.5,0.5)"><path d="M504.1,256c0,-137 -111.1,-248.1 -248.1,-248.1c-137,0 -248.1,111.1 -248.1,248.1c0,137 111.1,248.1 248.1,248.1c137,0 248.1,-111.1 248.1,-248.1z" fill="#17a2b8"></path><path d="M408.8,245.5l-141.2,-86.7c-3.9,-2.4 -8.9,-2.5 -12.9,-0.3c-4,2.2 -6.5,6.5 -6.5,11.1v172.7c0,4.6 2.5,8.8 6.5,11.1c1.9,1.1 4.1,1.6 6.2,1.6c2.3,0 4.6,-0.6 6.6,-1.9l141.2,-86c3.8,-2.3 6.1,-6.4 6.1,-10.8c0.1,-4.4 -2.2,-8.5 -6,-10.8z" fill="#ffffff"></path><path d="M343.5,229.5h-234.3c-6.7,0 -12,5.4 -12,12v28.9c0,6.7 5.4,12 12,12h234.3c6.7,0 12,-5.4 12,-12v-28.9c0.1,-6.6 -5.3,-12 -12,-12z" fill="#ffffff"></path></g></g>
</svg>
